<?xml version="1.0" encoding="utf-8"?>
<!-- Generator: Adobe Illustrator 21.1.0, SVG Export Plug-In . SVG Version: 6.00 Build 0)  -->
<svg version="1.1" id="Layer_1" xmlns="http://www.w3.org/2000/svg" xmlns:xlink="http://www.w3.org/1999/xlink" x="0px" y="0px"
	 viewBox="0 0 25 25" style="enable-background:new 0 0 25 25;" xml:space="preserve">
<style type="text/css">
	.st0{fill:#FFFFFF;}
</style>
<g>
	<path class="st0" d="M20.5,7.5h-16c-0.3,0-0.6,0.3-0.6,0.6v12c0,0.3,0.3,0.6,0.6,0.6h16c0.3,0,0.6-0.3,0.6-0.6v-12
		C21.1,7.8,20.8,7.5,20.5,7.5z M19.9,12.5h-6.8V8.8h6.8V12.5z M11.9,8.8v3.7H5.1V8.8H11.9z M5.1,13.8h6.8v5.7H5.1V13.8z M13.1,19.5
		v-5.7h6.8v5.7H13.1z"/>
	<path class="st0" d="M7.8,6.3c0,0,0.1,0,0.1,0c0.3,0,0.6-0.2,0.6-0.5c0-0.1,0.1-0.3,0.2-0.4c0.4-0.6,1.4-0.8,2.1-0.4
		C11.2,5.2,11.6,5.6,12,6c0,0,0.1,0,0.1,0.1c0,0,0,0.1,0.1,0.1c0,0,0,0,0,0c0,0,0.1,0,0.1,0.1c0,0,0.1,0,0.1,0c0,0,0.1,0,0.1,0
		c0,0,0.1,0,0.1,0c0,0,0.1,0,0.1,0c0,0,0.1,0,0.1-0.1c0,0,0,0,0,0c0,0,0-0.1,0.1-0.1c0,0,0.1,0,0.1-0.1c0.4-0.5,0.8-0.9,1.2-1.1
		c0.8-0.4,1.7-0.2,2.1,0.5c0.1,0.1,0.1,0.2,0.1,0.4c0.1,0.3,0.3,0.5,0.6,0.5c0,0,0.1,0,0.1,0c0.3-0.1,0.6-0.4,0.5-0.7
		c-0.1-0.3-0.2-0.6-0.3-0.9c-0.8-1.2-2.4-1.6-3.8-0.9c-0.4,0.2-0.8,0.5-1.1,0.9c-0.3-0.4-0.7-0.7-1.1-0.9c-1.3-0.7-3-0.3-3.7,0.8
		C7.5,5,7.3,5.2,7.3,5.6C7.2,5.9,7.5,6.2,7.8,6.3z"/>
</g>
</svg>
